<svg xmlns="http://www.w3.org/2000/svg" xmlns:xlink="http://www.w3.org/1999/xlink" width="85" height="85" viewBox="0 0 85 85">
  <defs>
    <clipPath id="clip-path">
      <rect id="Rectángulo_463355" data-name="Rectángulo 463355" width="59.284" height="63.639" fill="#1e535a"/>
    </clipPath>
  </defs>
  <g id="Grupo_1213471" data-name="Grupo 1213471" transform="translate(-705.34 -410.422)">
    <g id="Grupo_1213488" data-name="Grupo 1213488">
      <path id="Sustracción_110" data-name="Sustracción 110" d="M15975.961,19829.512h85v85h-85Z" transform="translate(-15270.621 -19419.09)" fill="#ffde92"/>
      <g id="Grupo_1213487" data-name="Grupo 1213487" transform="translate(718.39 420.768)">
        <g id="Grupo_1213486" data-name="Grupo 1213486" clip-path="url(#clip-path)">
          <path id="Trazado_1280149" data-name="Trazado 1280149" d="M2.093,58.207A1.754,1.754,0,0,1,0,56.331L.009,40.66a1.74,1.74,0,0,1,2.1-1.692l0-20.844a.974.974,0,0,1,.925-.982.96.96,0,0,1,.938.947V38.953l16.451.008A1.671,1.671,0,0,1,22,40.551l-.007,16.07a1.652,1.652,0,0,1-1.565,1.6l-16.451.011-.015,2.313a1.144,1.144,0,0,0,1.194,1.238H45.2c.486,0,1.167-.42,1.167-.888l.01-9.126-15,.016a3.185,3.185,0,0,1-3.394-3.14l-.008-10.385L24.423,35.9a1.618,1.618,0,0,1-.577-.991,1.637,1.637,0,0,1,.562-1.009l3.566-2.352.007-10.385a3.158,3.158,0,0,1,2.848-3.134h15.54l0-8.724H3.987l-.023,4.169a.953.953,0,0,1-.93.908.983.983,0,0,1-.933-.959l.021-10.6A2.831,2.831,0,0,1,4.794.011L45.207,0a2.947,2.947,0,0,1,3.022,3.1l-.006,14.908,8.321.069a3.1,3.1,0,0,1,2.739,2.89l-.013,27.886a3.042,3.042,0,0,1-2.705,2.878l-2.8.038c-.343,0-.734-.647-.7-.983a1.077,1.077,0,0,1,.871-.844l2.217-.032a1.259,1.259,0,0,0,1.25-1.261l0-27.3a1.323,1.323,0,0,0-1.266-1.483l-24.931,0a1.366,1.366,0,0,0-1.372,1.462l0,10.367a1.754,1.754,0,0,1-.759,1.354L26.335,34.9,29.3,36.913a1.8,1.8,0,0,1,.538,1.064V48.5a1.4,1.4,0,0,0,1.545,1.434l18.217,0a.933.933,0,0,1,.972,1.028c-.053.595-.51.819-1.127.841l-1.218.045-.011,8.885a2.943,2.943,0,0,1-3.01,2.914l-40.24-.006a2.881,2.881,0,0,1-2.834-2.822ZM20.342,1.839l-.484-.015c-.161-.005-.627-.044-.638.11l-.042.6a2.764,2.764,0,0,1-2.831,3.285,2.8,2.8,0,0,1-2.7-3.3c0-.135.071-.653-.084-.662l-.627-.038c-.123-.007-.538-.013-.543.11l-.027.605c-.068,1.494-.648,2.814-2,3.17a2.778,2.778,0,0,1-3.32-1.432,6.112,6.112,0,0,1-.307-2.434L4.92,1.852a1.209,1.209,0,0,0-.958,1.02l.023,4.607H46.358l.016-4.595a1.165,1.165,0,0,0-1.16-1.052l-19.094,0L26.088,3.1a2.739,2.739,0,0,1-3.163,2.69c-3-.347-2.26-3.941-2.583-3.951M10.411,3.386l.079-1.544L8.58,1.834l.028,1.3c.007.309.509.783.819.85.267.058.967-.27.984-.6m6.911-.129.05-1.418-1.878,0L15.545,3.3c.011.316.641.726.945.7.27-.026.823-.471.832-.74m6.909-.176,0-1.241-1.87,0,.114,1.619c.022.32.791.6,1.082.5a1.294,1.294,0,0,0,.679-.875M20.137,40.826H1.879V56.355H20.137Z" transform="translate(0 0)" fill="#1e535a"/>
          <path id="Trazado_1280150" data-name="Trazado 1280150" d="M202.795,165.378l-17.185.015a2.044,2.044,0,0,1-1.577-.741,1.816,1.816,0,0,1-.113-1.861l8.555-13.109a2,2,0,0,1,1.251-.9,1.848,1.848,0,0,1,1.592.526l8.719,13.329a1.886,1.886,0,0,1,.161,1.71,1.821,1.821,0,0,1-1.4,1.031m-.416-1.866-8.349-12.77-8.357,12.774Z" transform="translate(-150.214 -121.645)" fill="#1e535a"/>
          <path id="Trazado_1280151" data-name="Trazado 1280151" d="M57.323,93.32H46.057a.949.949,0,0,1,.045-1.9H57.283a1,1,0,0,1,.934.924,1.04,1.04,0,0,1-.893.975" transform="translate(-36.909 -74.751)" fill="#1e535a"/>
          <path id="Trazado_1280152" data-name="Trazado 1280152" d="M57.426,163.4l-11.343.008a1.1,1.1,0,0,1-.912-1.012,1.013,1.013,0,0,1,1.061-.891l11.34.018c.311,0,.664.608.678.88.015.307-.369,1-.825,1" transform="translate(-36.933 -132.053)" fill="#1e535a"/>
          <path id="Trazado_1280153" data-name="Trazado 1280153" d="M55.789,181.208l-9.706.006a1.068,1.068,0,0,1-.906-.969,1.016,1.016,0,0,1,.913-.939l9.772-.006a1.19,1.19,0,0,1,.846.944,1.1,1.1,0,0,1-.918.965" transform="translate(-36.939 -146.607)" fill="#1e535a"/>
          <path id="Trazado_1280154" data-name="Trazado 1280154" d="M55.932,111.221l-9.847.019a.937.937,0,0,1,.043-1.873l9.737,0c.335,0,.762.492.834.769.084.318-.276,1.082-.767,1.083" transform="translate(-36.941 -89.425)" fill="#1e535a"/>
          <path id="Trazado_1280155" data-name="Trazado 1280155" d="M50.614,75.768l-4.584-.007a1.293,1.293,0,0,1-.875-.7c-.114-.288.193-1.121.5-1.122l5.3-.017c.306,0,.613.723.57,1.009a1.14,1.14,0,0,1-.921.84" transform="translate(-36.902 -60.441)" fill="#1e535a"/>
          <path id="Trazado_1280156" data-name="Trazado 1280156" d="M50.6,145.578l-4.592,0a1.041,1.041,0,0,1-.877-.968.959.959,0,0,1,1.059-.883h4.428a.938.938,0,0,1,.911.856.956.956,0,0,1-.929,1" transform="translate(-36.897 -117.518)" fill="#1e535a"/>
          <path id="Trazado_1280157" data-name="Trazado 1280157" d="M44.574,248.315a1.044,1.044,0,0,1-.079,1.474,1.1,1.1,0,0,1-1.3-.183l-2.759-2.771-2.8,2.8a1.071,1.071,0,0,1-1.15.181c-.381-.208-.636-.985-.322-1.3l2.973-2.995-2.708-2.681a1.085,1.085,0,0,1-.235-1.341c.173-.314.963-.58,1.281-.267l3,2.957,2.821-2.826a1.083,1.083,0,0,1,1.21-.089,1,1,0,0,1,.083,1.4L41.774,245.5Z" transform="translate(-29.449 -197.135)" fill="#1e535a"/>
          <path id="Trazado_1280158" data-name="Trazado 1280158" d="M236.982,181.128a1.035,1.035,0,0,1-.9.967.988.988,0,0,1-.981-.911l-.011-3.888a1.039,1.039,0,0,1,.879-.992c.335-.055.99.412.992.8Z" transform="translate(-192.223 -144.153)" fill="#1e535a"/>
          <path id="Trazado_1280159" data-name="Trazado 1280159" d="M236.9,213.007a1.034,1.034,0,0,1-.9,1.037,1.009,1.009,0,0,1-1.014-1.063,1.057,1.057,0,0,1,.842-1.1c.67-.065,1.1.389,1.068,1.125" transform="translate(-192.146 -173.243)" fill="#1e535a"/>
        </g>
      </g>
    </g>
  </g>
</svg>
