<svg xmlns="http://www.w3.org/2000/svg" xmlns:xlink="http://www.w3.org/1999/xlink" width="85" height="85" viewBox="0 0 85 85">
  <defs>
    <clipPath id="clip-path">
      <rect id="Rectángulo_462994" data-name="Rectángulo 462994" width="69.257" height="67.918" fill="#1e535a"/>
    </clipPath>
  </defs>
  <g id="Grupo_1213492" data-name="Grupo 1213492" transform="translate(-289.711 -3100)">
    <g id="Grupo_1213254" data-name="Grupo 1213254" transform="translate(-415.984 2689.637)">
      <path id="Sustracción_110" data-name="Sustracción 110" d="M15975.961,19829.512h85v85h-85Z" transform="translate(-15270.266 -19419.148)" fill="#ffde92"/>
      <g id="Grupo_1213412" data-name="Grupo 1213412" transform="translate(713.695 419.363)">
        <g id="Grupo_1213411" data-name="Grupo 1213411" clip-path="url(#clip-path)">
          <path id="Trazado_1278973" data-name="Trazado 1278973" d="M50.547,67.9,18.8,67.918a3.941,3.941,0,0,1-.067-7.876L23,60.018a26.944,26.944,0,0,0,1.91-9.736l-18.988,0A5.845,5.845,0,0,1,0,44.52L0,5.677A5.764,5.764,0,0,1,5.8,0l58.89,0a4.436,4.436,0,0,1,4.552,4.275l.015,40.243a5.843,5.843,0,0,1-5.923,5.76l-19.134,0a26.659,26.659,0,0,0,2.052,9.737l4.269.027a3.935,3.935,0,0,1,.026,7.861M67.282,38.689V4.24a2.631,2.631,0,0,0-2.965-2.288H5.753A3.733,3.733,0,0,0,2,5.471l-.013,33.22ZM63.6,48.28a3.79,3.79,0,0,0,3.687-3.909l-.047-3.766H2.018l-.052,3.779a3.8,3.8,0,0,0,3.6,3.891ZM44.093,60.024a32.524,32.524,0,0,1-1.9-9.747l-15.309,0a29.187,29.187,0,0,1-1.79,9.752Zm6.342,5.933A1.97,1.97,0,0,0,52.3,63.8a1.99,1.99,0,0,0-2.16-1.772H19.118a1.974,1.974,0,1,0-.2,3.939Z" fill="#1e535a"/>
          <path id="Trazado_1278974" data-name="Trazado 1278974" d="M71.963,44.7a4.166,4.166,0,0,1,4.45-3.072,4.056,4.056,0,0,1,3.614,3.979A4.078,4.078,0,0,1,72,46.676l-6.768,0c-.451,0-1.068-.465-1.068-.921l0-7.052-6.129-.008-.018,2.992a4.079,4.079,0,1,1-1.859.011l-.025-3-6.115,0,0,6.837a1.087,1.087,0,0,1-1.082,1.135l-6.761,0a4.075,4.075,0,0,1-8.02-.871,4.055,4.055,0,0,1,3.43-4.148,4.121,4.121,0,0,1,4.61,3.035l5.892,0v-6l-1.64,0a1.157,1.157,0,0,1-1.037-.96L45.4,33.562l-9.075-.009a4.083,4.083,0,0,1-8.044-.759,4.028,4.028,0,0,1,3.337-4.175,4.088,4.088,0,0,1,4.692,3.017h9.082l.01-4.056a1.108,1.108,0,0,1,1.038-1.049l1.645.02,0-6.008-5.908.006a4.076,4.076,0,1,1-4.589-5.026A4.162,4.162,0,0,1,42.2,18.556l7,0a1.126,1.126,0,0,1,.821.8l-.005,7.192,6.108,0,.027-3.052a4.007,4.007,0,0,1-3.081-4.429,4.049,4.049,0,0,1,8.021-.188A4.016,4.016,0,0,1,58.043,23.5l0,3.053,6.125,0-.006-7.166c0-.234.435-.816.676-.817l7.13-.018A4.22,4.22,0,0,1,76.413,15.5,4.07,4.07,0,1,1,72,20.553l-5.9-.019-.007,6.009,2.146.1c.3.014.548.853.547,1.155l0,3.833,9.086,0a4.09,4.09,0,0,1,4.5-3.046,4.026,4.026,0,0,1,3.53,4.052,4.072,4.072,0,0,1-3.37,3.951,4.027,4.027,0,0,1-4.645-3.029l-9.1-.012-.031,4.169a1.149,1.149,0,0,1-1.032.969l-1.639,0v5.994ZM40.323,19.548a2.1,2.1,0,1,0-2.1,2.1,2.1,2.1,0,0,0,2.1-2.1m18.869-.008a2.1,2.1,0,1,0-2.1,2.1,2.1,2.1,0,0,0,2.1-2.1m18.857.007a2.1,2.1,0,1,0-2.1,2.1,2.1,2.1,0,0,0,2.1-2.1M66.838,28.525H47.344v8.164H66.838ZM34.435,32.6a2.1,2.1,0,1,0-2.1,2.1,2.1,2.1,0,0,0,2.1-2.1m49.506,0a2.1,2.1,0,1,0-2.1,2.1,2.1,2.1,0,0,0,2.1-2.1M40.32,45.663a2.1,2.1,0,1,0-2.1,2.1,2.1,2.1,0,0,0,2.1-2.1m18.868-.006a2.1,2.1,0,1,0-2.1,2.1,2.1,2.1,0,0,0,2.1-2.1m18.862.006a2.1,2.1,0,1,0-2.1,2.1,2.1,2.1,0,0,0,2.1-2.1" transform="translate(-22.462 -12.289)" fill="#1e535a"/>
          <path id="Trazado_1278975" data-name="Trazado 1278975" d="M156.9,213.514h-5.236a1.183,1.183,0,0,1-1.014-.791c-.065-.321.286-1.12.624-1.12h6.017c.336,0,.686.8.623,1.125a1.2,1.2,0,0,1-1.014.786" transform="translate(-119.655 -168.074)" fill="#1e535a"/>
        </g>
      </g>
    </g>
  </g>
</svg>
