<svg xmlns="http://www.w3.org/2000/svg" xmlns:xlink="http://www.w3.org/1999/xlink" width="1020.332" height="518.334" viewBox="0 0 1020.332 518.334">
  <defs>
    <clipPath id="clip-path">
      <path id="Trazado_608976" data-name="Trazado 608976" d="M15.85,0h988.632c8.754,0,15.85,8.037,15.85,17.951V500.383c0,9.914-7.1,17.951-15.85,17.951H15.85C7.1,518.333,0,510.3,0,500.383V17.951C0,8.037,7.1,0,15.85,0Z" transform="translate(284.668 1119)" fill="#dfefff"/>
    </clipPath>
    <clipPath id="clip-path-2">
      <rect id="Rectángulo_462059" data-name="Rectángulo 462059" width="509.464" height="457.213" fill="none"/>
    </clipPath>
    <clipPath id="clip-path-4">
      <rect id="Rectángulo_462056" data-name="Rectángulo 462056" width="470.135" height="382.335" fill="none"/>
    </clipPath>
  </defs>
  <g id="Grupo_1213212" data-name="Grupo 1213212" transform="translate(-290.711 -9450)">
    <g id="Enmascarar_grupo_1098656" data-name="Enmascarar grupo 1098656" transform="translate(6.043 8331)" clip-path="url(#clip-path)">
      <rect id="Rectángulo_400937" data-name="Rectángulo 400937" width="1069" height="543" transform="translate(264.668 1106)" fill="#dfefff"/>
    </g>
    <g id="Grupo_1212683" data-name="Grupo 1212683" transform="translate(-19 -5)">
      <g id="Grupo_1212677" data-name="Grupo 1212677" transform="translate(553.044 9511.735)">
        <g id="Grupo_1212676" data-name="Grupo 1212676" clip-path="url(#clip-path-2)">
          <g id="Grupo_1212675" data-name="Grupo 1212675">
            <g id="Grupo_1212674" data-name="Grupo 1212674" clip-path="url(#clip-path-2)">
              <g id="Grupo_1212673" data-name="Grupo 1212673" transform="translate(29.995 45.387)" opacity="0.2">
                <g id="Grupo_1212672" data-name="Grupo 1212672">
                  <g id="Grupo_1212671" data-name="Grupo 1212671" clip-path="url(#clip-path-4)">
                    <path id="Trazado_1277918" data-name="Trazado 1277918" d="M120.678,413.332c-33.195-7.439-50.238-47.164-55.649-80.752s1.447-68.015,11.844-100.408c7.966-24.816,18.4-49.557,36.3-68.5s44.554-31.258,70.151-26.345c12.349,2.37,23.927,8.542,36.483,9.255,34.909,1.98,56.522-35.417,80.815-60.567a142.694,142.694,0,0,1,71.56-39.971c27.065-5.941,59.525-1.751,75.6,20.819,12.324,17.3,11.725,40.59,7.882,61.481-17.91,97.352-92.023,173.779-166.985,238.425-31.543,27.2-112.277,59.051-168,46.564" transform="translate(-13.207 -33.791)" fill="#9ecfff"/>
                    <path id="Trazado_1277919" data-name="Trazado 1277919" d="M181.147,85.926a17.2,17.2,0,1,1,3.5,24.079,17.2,17.2,0,0,1-3.5-24.079" transform="translate(17.267 -24.376)" fill="#9ecfff"/>
                    <path id="Trazado_1277920" data-name="Trazado 1277920" d="M384.887,38.816a7.374,7.374,0,1,1,1.5,10.32,7.373,7.373,0,0,1-1.5-10.32" transform="translate(71.965 -35.853)" fill="#9ecfff"/>
                    <path id="Trazado_1277921" data-name="Trazado 1277921" d="M27.117,256.714a17.224,17.224,0,1,0,24.106-3.5,17.223,17.223,0,0,0-24.106,3.5" transform="translate(-23.694 21.038)" fill="#9ecfff"/>
                  </g>
                </g>
              </g>
              <path id="Trazado_1277922" data-name="Trazado 1277922" d="M407.424,162.443H356.846a8.016,8.016,0,0,1-8.016-8.015v-50.58a8.016,8.016,0,0,1,8.016-8.016h50.579a8.016,8.016,0,0,1,8.016,8.016v50.579a8.016,8.016,0,0,1-8.016,8.016" transform="translate(92.761 25.484)" fill="#62249e"/>
              <path id="Trazado_1277923" data-name="Trazado 1277923" d="M398.208,112.772h0a12.585,12.585,0,0,0-17.8,0l-.627.627-.442-.442a12.756,12.756,0,0,0-17.729-.432,12.583,12.583,0,0,0-.253,18.044l.625.627,14.673,14.673a4.42,4.42,0,0,0,6.25,0l15.3-15.3a12.585,12.585,0,0,0,0-17.8" transform="translate(95.112 29.008)" fill="#fefefe"/>
              <path id="Trazado_1277927" data-name="Trazado 1277927" d="M313.01,144.9c0,.441-.01.891-.022,1.332-.01.215-.022.429-.032.644a1.043,1.043,0,0,1-.011.182c-.022.376-.043.752-.075,1.127v.065c-.054.515-.108,1.02-.172,1.525a.167.167,0,0,1-.01.075c-.054.451-.119.9-.194,1.342-.022.162-.053.323-.086.484a.144.144,0,0,1-.01.065c-.076.441-.172.88-.258,1.31-.118.525-.247,1.052-.376,1.567-.278,1.03-.59,2.051-.944,3.05l.01.022A38.442,38.442,0,0,1,295.3,177.194h-.022a38.229,38.229,0,0,1-10.984,4.789.036.036,0,0,1-.022.01c-.794.2-1.6.376-2.415.537-.429.086-.881.162-1.32.225-.311.043-.634.1-.956.129l-.752.1c-.386.032-.784.075-1.181.106-.323.022-.644.043-.966.054-.28.022-.558.032-.838.032-.376.011-.762.022-1.138.022a38.3,38.3,0,0,1-38.288-38.3c0-.354,0-.709.01-1.063.021-.537.043-1.062.086-1.589.022-.472.065-.923.108-1.385.032-.28.065-.558.108-.838s.063-.547.106-.815c.086-.558.172-1.117.29-1.665.043-.257.1-.505.151-.752a1.33,1.33,0,0,1,.043-.2v-.01a38.312,38.312,0,0,1,74.784,0v.01a1.5,1.5,0,0,1,.043.2c.053.247.106.495.149.752.119.548.2,1.106.29,1.665.043.268.076.537.108.815s.075.558.108.838c.043.462.086.913.118,1.385.033.527.054,1.052.076,1.589.01.354.01.709.01,1.063" transform="translate(62.869 28.349)" fill="#fbb03f"/>
              <path id="Trazado_1277928" data-name="Trazado 1277928" d="M260.192,146.079h8.634V140.2H258.47A23.385,23.385,0,0,0,260.192,146.079Z" transform="translate(68.732 37.283)" fill="none" stroke="#fefefe" stroke-linecap="round" stroke-miterlimit="10" stroke-width="1.11"/>
              <path id="Trazado_1277929" data-name="Trazado 1277929" d="M265.612,152.7a17.567,17.567,0,0,0,2.786.284v-7.6h-8.316A23.171,23.171,0,0,0,265.612,152.7Z" transform="translate(69.161 38.662)" fill="none" stroke="#fefefe" stroke-linecap="round" stroke-miterlimit="10" stroke-width="1.11"/>
              <path id="Trazado_1277930" data-name="Trazado 1277930" d="M258.471,135.7h10.355v-5.875h-8.634A23.271,23.271,0,0,0,258.471,135.7Z" transform="translate(68.732 34.524)" fill="none" stroke="#fefefe" stroke-linecap="round" stroke-miterlimit="10" stroke-width="1.11"/>
              <path id="Trazado_1277931" data-name="Trazado 1277931" d="M255.451,145.39a17.794,17.794,0,0,0,9.822,6.954,23.853,23.853,0,0,1-4.859-6.954Z" transform="translate(67.929 38.662)" fill="none" stroke="#fefefe" stroke-linecap="round" stroke-miterlimit="10" stroke-width="1.11"/>
              <path id="Trazado_1277932" data-name="Trazado 1277932" d="M258.857,137.953a24.166,24.166,0,0,1,.187-2.938h-5.883a17.434,17.434,0,0,0,0,5.876h5.883A24.165,24.165,0,0,1,258.857,137.953Z" transform="translate(67.254 35.903)" fill="none" stroke="#fefefe" stroke-linecap="round" stroke-miterlimit="10" stroke-width="1.11"/>
              <path id="Trazado_1277933" data-name="Trazado 1277933" d="M259.05,140.2H253.2a17.506,17.506,0,0,0,2.393,5.876h5.114A24.008,24.008,0,0,1,259.05,140.2Z" transform="translate(67.331 37.283)" fill="none" stroke="#fefefe" stroke-linecap="round" stroke-miterlimit="10" stroke-width="1.11"/>
              <path id="Trazado_1277934" data-name="Trazado 1277934" d="M260.081,130.878H268.4v-7.6a17.585,17.585,0,0,0-2.786.284A23.19,23.19,0,0,0,260.081,130.878Z" transform="translate(69.161 32.783)" fill="none" stroke="#fefefe" stroke-linecap="round" stroke-miterlimit="10" stroke-width="1.11"/>
              <path id="Trazado_1277935" data-name="Trazado 1277935" d="M265.273,123.789a17.8,17.8,0,0,0-9.822,6.954h4.962A23.876,23.876,0,0,1,265.273,123.789Z" transform="translate(67.929 32.918)" fill="none" stroke="#fefefe" stroke-linecap="round" stroke-miterlimit="10" stroke-width="1.11"/>
              <path id="Trazado_1277936" data-name="Trazado 1277936" d="M260.708,129.828h-5.116A17.5,17.5,0,0,0,253.2,135.7h5.849A24,24,0,0,1,260.708,129.828Z" transform="translate(67.331 34.524)" fill="none" stroke="#fefefe" stroke-linecap="round" stroke-miterlimit="10" stroke-width="1.11"/>
              <path id="Trazado_1277937" data-name="Trazado 1277937" d="M276.474,135.7h5.849a17.49,17.49,0,0,0-2.393-5.875h-5.116A23.926,23.926,0,0,1,276.474,135.7Z" transform="translate(73.078 34.524)" fill="none" stroke="#fefefe" stroke-linecap="round" stroke-miterlimit="10" stroke-width="1.11"/>
              <path id="Trazado_1277938" data-name="Trazado 1277938" d="M258.252,137.953a24.433,24.433,0,0,0,.186,2.938h10.445v-5.876H258.438A24.434,24.434,0,0,0,258.252,137.953Z" transform="translate(68.674 35.903)" fill="none" stroke="#fefefe" stroke-linecap="round" stroke-miterlimit="10" stroke-width="1.11"/>
              <path id="Trazado_1277939" data-name="Trazado 1277939" d="M274.814,146.079h5.116a17.493,17.493,0,0,0,2.391-5.876h-5.847A24.009,24.009,0,0,1,274.814,146.079Z" transform="translate(73.078 37.283)" fill="none" stroke="#fefefe" stroke-linecap="round" stroke-miterlimit="10" stroke-width="1.11"/>
              <path id="Trazado_1277940" data-name="Trazado 1277940" d="M275.929,129.828h-8.634V135.7H277.65A23.286,23.286,0,0,0,275.929,129.828Z" transform="translate(71.079 34.524)" fill="none" stroke="#fefefe" stroke-linecap="round" stroke-miterlimit="10" stroke-width="1.11"/>
              <path id="Trazado_1277941" data-name="Trazado 1277941" d="M277.65,140.2H267.295v5.876h8.634A23.3,23.3,0,0,0,277.65,140.2Z" transform="translate(71.079 37.283)" fill="none" stroke="#fefefe" stroke-linecap="round" stroke-miterlimit="10" stroke-width="1.11"/>
              <path id="Trazado_1277942" data-name="Trazado 1277942" d="M277.926,137.953a24.427,24.427,0,0,0-.186-2.938H267.295v5.876H277.74A24.427,24.427,0,0,0,277.926,137.953Z" transform="translate(71.079 35.903)" fill="none" stroke="#fefefe" stroke-linecap="round" stroke-miterlimit="10" stroke-width="1.11"/>
              <path id="Trazado_1277943" data-name="Trazado 1277943" d="M282.073,135.016H276.19a23.124,23.124,0,0,1,0,5.875h5.883a17.425,17.425,0,0,0,0-5.875Z" transform="translate(73.444 35.903)" fill="none" stroke="#fefefe" stroke-linecap="round" stroke-miterlimit="10" stroke-width="1.11"/>
              <path id="Trazado_1277944" data-name="Trazado 1277944" d="M270.082,123.565a17.736,17.736,0,0,0-2.788-.284v7.6h8.316A23.184,23.184,0,0,0,270.082,123.565Z" transform="translate(71.079 32.783)" fill="none" stroke="#fefefe" stroke-linecap="round" stroke-miterlimit="10" stroke-width="1.11"/>
              <path id="Trazado_1277945" data-name="Trazado 1277945" d="M270.735,152.345a17.791,17.791,0,0,0,9.822-6.954h-4.962A23.851,23.851,0,0,1,270.735,152.345Z" transform="translate(71.994 38.662)" fill="none" stroke="#fefefe" stroke-linecap="round" stroke-miterlimit="10" stroke-width="1.11"/>
              <path id="Trazado_1277946" data-name="Trazado 1277946" d="M280.557,130.743a17.8,17.8,0,0,0-9.822-6.954,23.855,23.855,0,0,1,4.859,6.954Z" transform="translate(71.994 32.918)" fill="none" stroke="#fefefe" stroke-linecap="round" stroke-miterlimit="10" stroke-width="1.11"/>
              <path id="Trazado_1277947" data-name="Trazado 1277947" d="M275.611,145.39h-8.316v7.6a17.587,17.587,0,0,0,2.786-.284A23.189,23.189,0,0,0,275.611,145.39Z" transform="translate(71.079 38.662)" fill="none" stroke="#fefefe" stroke-linecap="round" stroke-miterlimit="10" stroke-width="1.11"/>
              <path id="Trazado_1277948" data-name="Trazado 1277948" d="M317.66,176.9l-22.355-6a38.191,38.191,0,0,1-11,4.788.04.04,0,0,1-.022.011c-.8.205-1.6.376-2.417.538-.429.085-.88.161-1.32.224-.311.043-.633.1-.956.13l-.752.095c-.386.033-.784.077-1.181.108-.322.022-.643.043-.966.053-.278.023-.558.033-.837.033-.376.011-.763.022-1.139.022a38.3,38.3,0,0,1-38.288-38.3c0-.354,0-.709.01-1.063.021-.537.043-1.063.086-1.589.022-.472.065-.924.108-1.385.033-.28.065-.557.108-.838s.065-.548.108-.815c.086-.56.171-1.117.29-1.665.043-.258.1-.505.149-.751a1.443,1.443,0,0,1,.043-.205,38.312,38.312,0,0,0,74.784,0,1.286,1.286,0,0,1,.043.205c.053.246.108.492.151.751.118.548.2,1.105.29,1.665.043.267.075.537.106.815s.076.558.108.838c.043.461.086.913.119,1.385.032.525.053,1.052.075,1.589.01.354.01.709.01,1.063,0,.441-.01.892-.02,1.332-.011.215-.023.429-.033.644a1.166,1.166,0,0,1-.01.182c-.022.375-.043.751-.076,1.127v.066c-.053.515-.106,1.02-.172,1.524a.167.167,0,0,1-.01.075c-.053.451-.118.9-.192,1.342-.023.161-.054.323-.086.484a.13.13,0,0,1-.011.065c-.075.439-.172.88-.257,1.31-.119.527-.248,1.052-.376,1.568-.268,1.039-.58,2.06-.934,3.069Z" transform="translate(62.869 34.646)" fill="#fbb03f"/>
              <path id="Trazado_1277949" data-name="Trazado 1277949" d="M291.12,51.647c0,.441.011.891.022,1.332.01.214.021.429.032.644a1.041,1.041,0,0,0,.011.182c.021.376.043.752.075,1.127V55c.054.515.108,1.02.172,1.525a.167.167,0,0,0,.01.075c.054.451.119.9.194,1.342.021.162.053.323.086.484a.144.144,0,0,0,.01.065c.076.441.172.88.258,1.31.118.525.247,1.052.376,1.567.279,1.03.59,2.051.944,3.05l-.01.022a38.441,38.441,0,0,0,15.525,19.509h.022a38.23,38.23,0,0,0,10.984,4.789.036.036,0,0,0,.021.01c.794.2,1.6.376,2.415.537.429.086.881.162,1.32.225.311.043.634.1.956.129l.752.1c.386.032.784.075,1.181.106.323.022.644.043.966.054.28.022.558.032.838.032.376.011.762.022,1.138.022a38.3,38.3,0,0,0,38.289-38.3c0-.354,0-.709-.011-1.063-.022-.537-.043-1.062-.086-1.589-.021-.472-.065-.923-.106-1.385-.033-.279-.066-.558-.108-.838s-.065-.547-.108-.815c-.086-.558-.172-1.117-.29-1.665-.043-.257-.1-.5-.151-.752a1.328,1.328,0,0,0-.043-.2v-.01a38.312,38.312,0,0,0-74.784,0v.01a1.5,1.5,0,0,0-.043.2c-.053.248-.106.495-.149.752-.119.548-.2,1.106-.29,1.665-.043.268-.076.537-.108.815s-.075.56-.108.838c-.043.462-.086.913-.118,1.385-.033.527-.054,1.052-.075,1.589-.011.354-.011.709-.011,1.063" transform="translate(74.486 29.236)" fill="#fbb03f"/>
              <path id="Trazado_1277950" data-name="Trazado 1277950" d="M287.447,83.649l22.355-6a38.19,38.19,0,0,0,11,4.788.04.04,0,0,0,.023.011c.794.2,1.6.376,2.415.537.429.086.88.161,1.32.225.311.043.633.1.956.129l.752.1c.386.033.784.076,1.181.108.322.022.644.043.966.053q.418.032.838.033c.375.01.762.022,1.138.022a38.3,38.3,0,0,0,38.288-38.3c0-.354,0-.709-.01-1.063-.022-.537-.043-1.063-.086-1.589-.022-.472-.065-.924-.108-1.385-.033-.28-.065-.558-.108-.838s-.065-.548-.108-.815c-.086-.56-.171-1.118-.29-1.665-.043-.258-.1-.505-.149-.752a1.461,1.461,0,0,0-.043-.2,38.312,38.312,0,0,1-74.784,0,1.3,1.3,0,0,0-.043.2c-.053.247-.108.494-.151.752-.118.547-.2,1.105-.29,1.665-.043.267-.075.535-.106.815s-.076.558-.108.838c-.043.461-.086.913-.119,1.385-.032.525-.053,1.052-.075,1.589-.01.354-.01.709-.01,1.063,0,.441.01.891.02,1.332.011.214.023.429.033.643a1.175,1.175,0,0,0,.01.184c.022.375.043.751.076,1.127V48.7c.053.515.108,1.02.172,1.525a.167.167,0,0,0,.01.075c.053.451.118.9.194,1.342.021.161.053.322.086.484a.144.144,0,0,0,.01.065c.075.439.172.88.257,1.31.119.525.248,1.052.376,1.567.268,1.041.58,2.061.934,3.07Z" transform="translate(73.509 35.533)" fill="#fbb03f"/>
              <path id="Trazado_1277951" data-name="Trazado 1277951" d="M328.969,44.8a5.681,5.681,0,1,0,5.681-5.681,5.681,5.681,0,0,0-5.681,5.681" transform="translate(84.551 36.086)" fill="#fefefe"/>
              <path id="Trazado_1277952" data-name="Trazado 1277952" d="M316.881,44.8a5.681,5.681,0,1,0,5.681-5.681,5.681,5.681,0,0,0-5.681,5.681" transform="translate(81.336 36.086)" fill="#fefefe"/>
              <path id="Trazado_1277953" data-name="Trazado 1277953" d="M304.793,44.8a5.681,5.681,0,1,0,5.681-5.681,5.681,5.681,0,0,0-5.681,5.681" transform="translate(78.122 36.086)" fill="#fefefe"/>
              <path id="Trazado_1277954" data-name="Trazado 1277954" d="M69.657,61.111c.232.051.448.132.679.185l-1.5,6.464c-.2-.047-.391-.118-.594-.162A51.821,51.821,0,0,0,6.607,107.1c-.046.208-.063.418-.105.624L0,106.386c.049-.235.068-.473.12-.71A58.459,58.459,0,0,1,69.657,61.111" transform="translate(0 15.89)" fill="#fbb03f"/>
              <path id="Trazado_1277955" data-name="Trazado 1277955" d="M62.259,74.627c.156.034.292.11.449.147l-1.5,6.46c-.127-.029-.237-.092-.366-.12a34.187,34.187,0,0,0-40.649,26.05c-.03.134-.018.265-.044.4l-6.5-1.332c.033-.163.019-.323.056-.485A40.81,40.81,0,0,1,62.259,74.627" transform="translate(3.63 19.592)" fill="#fbb03f"/>
              <path id="Trazado_1277956" data-name="Trazado 1277956" d="M55.315,87.332c.084.018.156.06.238.078l-1.5,6.459c-.053-.011-.1-.039-.154-.051a17.6,17.6,0,0,0-20.923,13.409c-.013.061-.009.12-.02.181l-6.5-1.334c.019-.09.011-.177.03-.267A24.237,24.237,0,0,1,55.315,87.332" transform="translate(7.035 23.074)" fill="#fbb03f"/>
              <path id="Trazado_1277957" data-name="Trazado 1277957" d="M41.7,109.9a5.411,5.411,0,1,0,1.636-7.475A5.411,5.411,0,0,0,41.7,109.9" transform="translate(10.862 27.011)" fill="#fbb03f"/>
              <path id="Trazado_1277958" data-name="Trazado 1277958" d="M204.975,121.783c15.258-30.309-1.477-41.422-6.661-47.687C186.5,57.921,162.923,45.5,146.608,46.905a40.414,40.414,0,0,0-39.507,10.7C104.256,60.448,57.7,93,122.855,157.816" transform="translate(23.49 12.094)" fill="#7a4f1e"/>
              <path id="Trazado_1277959" data-name="Trazado 1277959" d="M119.3,61.448c7.241-1.833,8.206-8.948,5.728-14.648-2.56-5.892-4.76-15.645-13.481-12.568a12.184,12.184,0,0,0-6.27,5.547c-3.356,5.828-6.233.861-10.494-1.313-5.323-2.714-11.674,1.022-15.839,5.307-2.169,2.232-4.191,4.76-4.984,7.769-1.566,5.949,1.967,11.925,5.345,17.065,2.855,4.343,6.137,9.007,11.151,10.375,3.878,1.06,7.975-.108,11.824-1.267,3.414-1.029,6.884-2.084,9.854-4.057s5.418-5.04,5.781-8.587" transform="translate(19.565 8.947)" fill="#7a4f1e"/>
              <path id="Trazado_1277960" data-name="Trazado 1277960" d="M144.676,52.888c3.109-5.757,3.693-13.542,9.346-16.835,3.671-2.141,8.258-1.536,12.453-.867,4.988.8,10.454,1.861,13.592,5.818,1.767,2.228,2.523,5.076,3.132,7.856.806,3.671,1.405,7.652-.152,11.074-1.989,4.379-6.85,6.551-11.308,8.351-1.823.737-3.831,1.484-5.705.89-2.805-.889-3.943-4.266-6.319-6" transform="translate(38.472 9.191)" fill="#7a4f1e"/>
              <path id="Trazado_1277961" data-name="Trazado 1277961" d="M124.719,110.373a1.885,1.885,0,0,1-2.455,1.165c-4.19-1.6-12.395-5.464-17.685,5.1-2.679,5.351-.5,12.074,3.869,14.818,3.417,2.147,8.711,4.265,11.473,3.8,2.265,5.6-1.479,45.473-4.626,48.673-19.379,19.705-24.042,19.41-24.042,19.41s68.4,107.364,70.247,17.187c0,0,8.926-53.76,9.38-53.679,6.447,1.139,30.71,1.268,34.122-45.821,3.161-43.62-26.7-51.642-34.514-53.094-6.59-1.225-28.553-7.936-45.769,42.442" transform="translate(24.266 17.806)" fill="#ed7f5d"/>
              <path id="Trazado_1277962" data-name="Trazado 1277962" d="M157.923,146.787l-18.5-4.071,1.144,2.291A10.25,10.25,0,0,0,157.923,146.787Z" transform="translate(37.074 37.951)" fill="#bf5433"/>
              <path id="Trazado_1277963" data-name="Trazado 1277963" d="M187.1,71.229c4.751,8.921-5.424,33.534-26.234,19.547-7.431-4.994-16.561,15.68-24.9,19.1-14.728,6.045-20,2.755-22.514-3.412,0,0,43.206-92.417,73.651-35.239" transform="translate(30.168 13.977)" fill="#7a4f1e"/>
              <path id="Trazado_1277964" data-name="Trazado 1277964" d="M170.009,68.427s3.352,17.617,15.682,31.8c0,0,11.406-23.279-15.682-31.8" transform="translate(45.209 18.196)" fill="#7a4f1e"/>
              <path id="Trazado_1277965" data-name="Trazado 1277965" d="M118.071,113.445c-5.484-18.081-13.147-4.936-13.147-4.936Z" transform="translate(27.901 27.628)" fill="#bf5433"/>
              <path id="Trazado_1277966" data-name="Trazado 1277966" d="M152.168,111.135a10.528,10.528,0,1,1-13.414,6.46,10.529,10.529,0,0,1,13.414-6.46" transform="translate(36.739 29.395)" fill="#eb6b54"/>
              <path id="Trazado_1277967" data-name="Trazado 1277967" d="M177.571,134.477a10.532,10.532,0,0,1-4.528-12.511c1.3-3.7,5.852-5.574,9.451-6.233,0,0-.5,12.074-4.923,18.744" transform="translate(45.858 30.776)" fill="#eb6b54"/>
              <path id="Trazado_1277968" data-name="Trazado 1277968" d="M155.091,100.252c-2.282.714,4.652-2.817,7.42-2.684s5.609,1.414,5.5,3.8c0,0-7.431-2.836-12.915-1.12" transform="translate(41.121 25.944)"/>
              <path id="Trazado_1277969" data-name="Trazado 1277969" d="M182.707,107.857c1.448,1.9-.115-3.2-2.448-4.693s-5.394-2.038-6.684-.023a12.835,12.835,0,0,1,9.132,4.716" transform="translate(46.157 27.078)"/>
              <path id="Trazado_1277970" data-name="Trazado 1277970" d="M160.385,113.28c-.648,2.409-.227,4.616.941,4.931s2.641-1.384,3.289-3.793.227-4.617-.942-4.931-2.639,1.384-3.288,3.793" transform="translate(42.569 29.105)"/>
              <path id="Trazado_1277971" data-name="Trazado 1277971" d="M172.162,115.862c-.619,2.3-.216,4.409.9,4.709s2.522-1.322,3.141-3.622.216-4.409-.9-4.709-2.522,1.322-3.141,3.622" transform="translate(45.704 29.837)"/>
              <path id="Trazado_1277972" data-name="Trazado 1277972" d="M169.908,108.619l1.706,16.033-7.506-1.705Z" transform="translate(43.64 28.884)" fill="#bf5433"/>
              <path id="Trazado_1277973" data-name="Trazado 1277973" d="M159.6,121.385l16.033,3.412s-5.8,8.187-10.576,5.457-5.457-8.869-5.457-8.869" transform="translate(42.439 32.279)" fill="#fff"/>
              <path id="Trazado_1277974" data-name="Trazado 1277974" d="M120.41,55.395c1.686-2.11,1.8-5.045,1.661-7.742-.289-5.593-1.671-11.693-6.17-15.029A11.281,11.281,0,0,0,98.95,36.938c-.785,1.694-1.158,3.6-2.241,5.117-2.038,2.865-5.914,3.58-9.4,4.066" transform="translate(23.218 8.088)" fill="none" stroke="#032f54" stroke-miterlimit="10" stroke-width="1.216"/>
              <path id="Trazado_1277975" data-name="Trazado 1277975" d="M171.264,38.182c4.742,2.5,9.948,5.552,11.307,10.738a16.6,16.6,0,0,1,.435,3.721,56.809,56.809,0,0,1-.157,6.212,13.169,13.169,0,0,1-1.393,5.579c-1.608,2.79-4.918,4.256-8.132,4.451a27.28,27.28,0,0,1-9.469-1.628" transform="translate(43.572 10.153)" fill="none" stroke="#032f54" stroke-miterlimit="10" stroke-width="1.216"/>
              <path id="Trazado_1277976" data-name="Trazado 1277976" d="M184.325,74.693a15.323,15.323,0,0,1-21.673,15.732c-4.54-2.112-7.778-6.3-12.068-8.878a19.848,19.848,0,0,0-16.133-1.838" transform="translate(35.753 19.862)" fill="none" stroke="#032f54" stroke-miterlimit="10" stroke-width="1.216"/>
              <path id="Trazado_1277977" data-name="Trazado 1277977" d="M129.565,89.964c-3.881,1.836-7.831,3.875-10.54,7.2s-3.866,8.294-1.648,11.971c1.536,2.546,4.317,4.007,6.7,5.784s4.621,4.437,4.186,7.379c-.566,3.829-4.994,5.5-7.979,7.963a13.41,13.41,0,0,0-4.31,13.509,9.375,9.375,0,0,0,5.083,6.36c2.6,1.079,6.022.272,7.393-2.182" transform="translate(30.727 23.923)" fill="none" stroke="#032f54" stroke-miterlimit="10" stroke-width="1.216"/>
              <path id="Trazado_1277978" data-name="Trazado 1277978" d="M230.757,284.763c.49,2.065,48.614-48.618,48.614-48.618s42.856-56.665,45.847-53.427c4.331,4.693-12.274,29.963-12.274,29.963a8.513,8.513,0,0,0,4.332,4.331c3.248,1.444,5.054,3.61,6.137,7.942s5.414,6.859,6.136,9.386S314.147,255.879,305,262.5c0,0-15.581,21.605-36.464,47.71" transform="translate(61.363 48.553)" fill="#ed7f5d"/>
              <path id="Trazado_1277979" data-name="Trazado 1277979" d="M270.3,229.617s8.664-24.547,12.274-23.826,19.493,7.58,19.132,13.719-14.078,1.082-14.078,1.082,2.527,13.717-4.332,15.523-13-6.5-13-6.5" transform="translate(71.878 54.72)" fill="#ed7f5d"/>
              <path id="Trazado_1277980" data-name="Trazado 1277980" d="M286.937,218.736s-.449,3.664,4.605,4.747c0,0,1.13,7.755,7.628,6.311,0,0-1.147,3.748,2.824,4.47,0,0-17.585,18.766-15.058-15.528" transform="translate(76.236 58.166)" fill="#bf5433"/>
              <path id="Trazado_1277981" data-name="Trazado 1277981" d="M284.591,207.17a72.055,72.055,0,0,1,10.211,3.89c.829.376,1.653.766,2.461,1.182a17.925,17.925,0,0,1,2.536,1.444,5.574,5.574,0,0,1,2.165,2.818,3.77,3.77,0,0,1-.02,2.17,4.267,4.267,0,0,1-1.07,1.717,8.911,8.911,0,0,1-2.75,1.71,13.434,13.434,0,0,1-2.872.847,23.943,23.943,0,0,1-5.68.23l-1.327-.092c-.358-.03-.647.051-.642.022,0-.011-.011-.071-.038-.023a.941.941,0,0,0-.019.4l.135,1.344c.111,1.818.315,3.619.344,5.452l-.16.03-1.028-5.323-.257-1.332a1.386,1.386,0,0,1,.287-1.366,2.111,2.111,0,0,1,1.349-.4l1.358.006a26.2,26.2,0,0,0,5.364-.449,10.219,10.219,0,0,0,4.783-2.209,2.3,2.3,0,0,0,.714-2.308,4.238,4.238,0,0,0-1.575-2.032,17.221,17.221,0,0,0-2.286-1.41l-2.377-1.3q-4.77-2.567-9.677-4.875Z" transform="translate(75.66 55.091)" fill="#bf5433"/>
              <path id="Trazado_1277982" data-name="Trazado 1277982" d="M297.208,205.855a4.966,4.966,0,0,1-.6,2.137,6.813,6.813,0,0,1-1.168,1.612,7.177,7.177,0,0,1-1.62,1.2,5.552,5.552,0,0,1-2.188.682l-.12-.11,2.725-2.871,2.847-2.761Z" transform="translate(77.519 54.712)" fill="#bf5433"/>
              <path id="Trazado_1277983" data-name="Trazado 1277983" d="M305.63,213.051a20.659,20.659,0,0,1-3.175,4.905,28.739,28.739,0,0,1-4.213,4.017,26.528,26.528,0,0,1-5.018,3.079,5.984,5.984,0,0,1-3.257.537,3.25,3.25,0,0,1-2.55-1.849l.132-.1a3,3,0,0,0,2.427,1.087,5.461,5.461,0,0,0,2.634-.8,45.5,45.5,0,0,0,4.636-3.242,55.926,55.926,0,0,0,8.26-7.742Z" transform="translate(76.43 56.626)" fill="#bf5433"/>
              <path id="Trazado_1277984" data-name="Trazado 1277984" d="M290.7,223.384c.895,2.013,1.948,4.114,3.4,4.651a3.1,3.1,0,0,0,2.245-.03,8.41,8.41,0,0,0,2.412-1.327,21.74,21.74,0,0,0,2.348-1.953l2.382-2.172c1.587-1.479,3.275-2.888,5.056-4.256l.128.1q-2.038,2.577-4.238,5.016A34.927,34.927,0,0,1,299.7,228a9.418,9.418,0,0,1-2.964,1.489,4.231,4.231,0,0,1-3.276-.332,5.055,5.055,0,0,1-2.07-2.558,15.617,15.617,0,0,1-.856-3.181Z" transform="translate(77.259 58.049)" fill="#bf5433"/>
              <path id="Trazado_1277985" data-name="Trazado 1277985" d="M297.019,226.917a7,7,0,0,0,1.818,2.613,1.5,1.5,0,0,0,.447.219.875.875,0,0,0,.171.035c.108.015.213.035.322.042a6.154,6.154,0,0,0,1.343.019c.949-.023,1.884-.337,3.218-.494.624-.079,1.118-.052,1.582-.147a9.2,9.2,0,0,0,1.66-.568l.122.108a6.1,6.1,0,0,1-1.332,1.209,6.688,6.688,0,0,1-1.681.644,14.8,14.8,0,0,1-3.47.867,5.959,5.959,0,0,1-1.808-.173,2.647,2.647,0,0,1-1.543-.967,5.378,5.378,0,0,1-1.01-3.413Z" transform="translate(78.94 60.34)" fill="#bf5433"/>
              <path id="Trazado_1277986" data-name="Trazado 1277986" d="M152.792,173.449s33.671-2.565,43.7,17.92,30.535,99.2,30.535,99.2l66.818-52.7,32.938,54.583S229.715,401.931,204.437,394.086,152.5,201.375,152.792,173.449" transform="translate(40.63 46.096)" fill="#2ca8b8"/>
              <path id="Trazado_1277987" data-name="Trazado 1277987" d="M196.054,190.572c-10.5-19.6-43.263-17.124-43.263-17.124l18.847,29.735q12.187-6.344,24.416-12.611" transform="translate(40.63 46.096)" fill="#ed7f5d"/>
              <path id="Trazado_1277988" data-name="Trazado 1277988" d="M173.934,171.548c5.117,5.117,49.622,89.74,50.684,115.754,1.173,28.763-5.284,98.618-5.284,98.618s-150.861,1.175-153.8,2.348c-8.47-77.17-6.717-177.622,13.987-189.856,0,0,34.028-34.539,39.913-38.122,0,0,50.4,29.167,54.5,11.258" transform="translate(16.161 42.624)" fill="#2ca8b8"/>
              <path id="Trazado_1277989" data-name="Trazado 1277989" d="M89.589,201.49C85.855,205.233,79.526,190.4,79.526,190.4,58.821,202.637,57.068,303.089,65.538,380.259c2.934-1.175,153.8-2.348,153.8-2.348s1.294-14,2.617-32.025c-45.367-53.946-86.26-91.074-132.361-144.4" transform="translate(16.161 50.632)" fill="#19538d"/>
              <path id="Trazado_1277990" data-name="Trazado 1277990" d="M370.951,353.085H186.2c-6.456,0-10.783-4.54-9.646-10.22L217.416,250.9c1.463-7.318,8.741-13.348,16.233-13.348H425.528c7.492,0,10.619,6.03,7.042,13.348l-44.936,91.961c-2.775,5.68-10.227,10.22-16.684,10.22" transform="translate(46.9 63.171)" fill="#d48f27"/>
              <path id="Trazado_1277991" data-name="Trazado 1277991" d="M369.053,356.52H184.515c-6.449,0-10.776-4.507-9.648-10.145l40.826-91.22a17.209,17.209,0,0,1,16.18-13.228H423.189c7.475,0,10.616,5.974,7.071,13.228l-44.573,91.22c-2.755,5.638-10.186,10.145-16.634,10.145" transform="translate(46.453 64.333)" fill="#fbb03f"/>
              <path id="Trazado_1277992" data-name="Trazado 1277992" d="M385.494,340.985H140.237a4.667,4.667,0,0,1-4.647-4.557,4.451,4.451,0,0,1,4.467-4.557H385.316a4.667,4.667,0,0,1,4.646,4.557,4.451,4.451,0,0,1-4.467,4.557" transform="translate(36.056 88.251)" fill="#d48f27"/>
              <rect id="Rectángulo_462057" data-name="Rectángulo 462057" width="489.39" height="23.531" transform="translate(18.809 428.476)" fill="#62249e"/>
              <path id="Trazado_1277993" data-name="Trazado 1277993" d="M189.79,339.253c43.211-38.522,66.627-67.411,71.132-72.561,2.576-2.945,9.4-12.612,8.566-13.99-1.9-3.148-15.867,15.99-15.6,14.807s18.38-21.414,16.909-23.993c-2.21-3.88-22.007,19.044-22.36,19.415-5.327,5.611,19.8-21.2,18.919-24.228s-13.178,8.406-13.621,8.8c0,0-9.955,10.413-10.868,9.849s14.824-28.589,11.435-28.687-16.816,18.984-20.2,23.108-9.661,8.513-11.9,8.454c-1.888-.044-4.455-7.877-3.133-12.219,0,0-8.127,11.059-9.918,19.7a73.3,73.3,0,0,0-1.153,10.2l-36.537,31.5Z" transform="translate(45.594 60.807)" fill="#ed7f5d"/>
              <path id="Trazado_1277994" data-name="Trazado 1277994" d="M112.367,218.162S96.6,177.023,79.013,191.129C49.259,215,54.533,310.972,125.5,401.969c23.05,29.553,135.642-76.408,135.642-76.408l-35.3-42.358-61.695,50.239Z" transform="translate(16.467 50.042)" fill="#2ca8b8"/>
              <path id="Trazado_1277995" data-name="Trazado 1277995" d="M111.714,216.579c-3.118-7.394-17.2-37.888-32.708-25.45-11.65,9.346-17.9,29.774-16.966,56.6q24.382-16.308,49.673-31.149" transform="translate(16.474 50.041)" fill="#ed7f5d"/>
              <line id="Línea_3432" data-name="Línea 3432" y2="16.357" transform="translate(47.22 181.897)" fill="none" stroke="#482480" stroke-miterlimit="10" stroke-width="1.924"/>
              <line id="Línea_3433" data-name="Línea 3433" x1="11.567" y2="11.567" transform="translate(55.742 190.218)" fill="none" stroke="#482480" stroke-miterlimit="10" stroke-width="1.924"/>
              <line id="Línea_3434" data-name="Línea 3434" x1="16.357" transform="translate(59.273 210.307)" fill="none" stroke="#482480" stroke-miterlimit="10" stroke-width="1.924"/>
              <line id="Línea_3435" data-name="Línea 3435" x1="11.567" y1="11.567" transform="translate(55.742 218.829)" fill="none" stroke="#482480" stroke-miterlimit="10" stroke-width="1.924"/>
              <line id="Línea_3436" data-name="Línea 3436" y1="16.357" transform="translate(47.22 222.36)" fill="none" stroke="#482480" stroke-miterlimit="10" stroke-width="1.924"/>
              <line id="Línea_3437" data-name="Línea 3437" y1="11.567" x2="11.567" transform="translate(27.131 218.829)" fill="none" stroke="#482480" stroke-miterlimit="10" stroke-width="1.924"/>
              <line id="Línea_3438" data-name="Línea 3438" x2="16.357" transform="translate(18.81 210.307)" fill="none" stroke="#482480" stroke-miterlimit="10" stroke-width="1.924"/>
              <line id="Línea_3439" data-name="Línea 3439" x2="11.567" y2="11.567" transform="translate(27.131 190.218)" fill="none" stroke="#482480" stroke-miterlimit="10" stroke-width="1.924"/>
              <line id="Línea_3440" data-name="Línea 3440" y2="16.357" transform="translate(481.054 224.118)" fill="none" stroke="#9ecfff" stroke-miterlimit="10" stroke-width="1.924"/>
              <line id="Línea_3441" data-name="Línea 3441" x1="11.567" y2="11.567" transform="translate(489.576 232.44)" fill="none" stroke="#9ecfff" stroke-miterlimit="10" stroke-width="1.924"/>
              <line id="Línea_3442" data-name="Línea 3442" x1="16.357" transform="translate(493.107 252.528)" fill="none" stroke="#9ecfff" stroke-miterlimit="10" stroke-width="1.924"/>
              <line id="Línea_3443" data-name="Línea 3443" x1="11.567" y1="11.567" transform="translate(489.576 261.051)" fill="none" stroke="#9ecfff" stroke-miterlimit="10" stroke-width="1.924"/>
              <line id="Línea_3444" data-name="Línea 3444" y1="16.357" transform="translate(481.054 264.581)" fill="none" stroke="#9ecfff" stroke-miterlimit="10" stroke-width="1.924"/>
              <line id="Línea_3445" data-name="Línea 3445" y1="11.567" x2="11.567" transform="translate(460.965 261.051)" fill="none" stroke="#9ecfff" stroke-miterlimit="10" stroke-width="1.924"/>
              <line id="Línea_3446" data-name="Línea 3446" x2="16.357" transform="translate(452.644 252.528)" fill="none" stroke="#9ecfff" stroke-miterlimit="10" stroke-width="1.924"/>
              <line id="Línea_3447" data-name="Línea 3447" x2="11.567" y2="11.567" transform="translate(460.965 232.44)" fill="none" stroke="#9ecfff" stroke-miterlimit="10" stroke-width="1.924"/>
            </g>
          </g>
        </g>
      </g>
      <circle id="Elipse_13904" data-name="Elipse 13904" cx="73.5" cy="73.5" r="73.5" transform="translate(392.711 9464)" fill="#9ecfff"/>
      <circle id="Elipse_13907" data-name="Elipse 13907" cx="73.5" cy="73.5" r="73.5" transform="translate(1101.711 9459)" fill="#9ecfff"/>
      <circle id="Elipse_13905" data-name="Elipse 13905" cx="73.5" cy="73.5" r="73.5" transform="translate(392.711 9804)" fill="#9ecfff"/>
      <circle id="Elipse_13906" data-name="Elipse 13906" cx="73.5" cy="73.5" r="73.5" transform="translate(1101.711 9804)" fill="#9ecfff"/>
      <text id="Curso" transform="translate(465.711 9544)" fill="#12263f" font-size="17" font-family="SegoeUI-Bold, Segoe UI" font-weight="700" letter-spacing="-0.025em"><tspan x="-21.965" y="0">Curso</tspan></text>
      <text id="Matrícula" transform="translate(1175.711 9539)" fill="#12263f" font-size="17" font-family="SegoeUI-Bold, Segoe UI" font-weight="700" letter-spacing="-0.025em"><tspan x="-36.326" y="0">Matrícula</tspan></text>
      <text id="Aprendiz" transform="translate(1175.711 9884)" fill="#12263f" font-size="17" font-family="SegoeUI-Bold, Segoe UI" font-weight="700" letter-spacing="-0.025em"><tspan x="-34.6" y="0">Aprendiz</tspan></text>
      <text id="Aprendiz-2" data-name="Aprendiz" transform="translate(465.711 9884)" fill="#12263f" font-size="17" font-family="SegoeUI-Bold, Segoe UI" font-weight="700" letter-spacing="-0.025em"><tspan x="-34.6" y="0">Aprendiz</tspan></text>
      <g id="Grupo_1212678" data-name="Grupo 1212678" transform="translate(108.673 -75.637)">
        <rect id="Rectángulo_462061" data-name="Rectángulo 462061" width="21" height="150" transform="translate(347.038 9722.637)" fill="#ffde92"/>
        <rect id="Rectángulo_462062" data-name="Rectángulo 462062" width="115" height="63" rx="23" transform="translate(301.038 9766.637)" fill="#ffde92"/>
        <path id="Polígono_11" data-name="Polígono 11" d="M31,0,62,54H0Z" transform="translate(327.038 9688.637)" fill="#ffde92"/>
      </g>
      <g id="Grupo_1212682" data-name="Grupo 1212682" transform="translate(1533.75 19485.637) rotate(180)">
        <rect id="Rectángulo_462061-2" data-name="Rectángulo 462061" width="21" height="150" transform="translate(347.038 9722.637)" fill="#ffde92"/>
        <rect id="Rectángulo_462062-2" data-name="Rectángulo 462062" width="115" height="63" rx="23" transform="translate(301.038 9766.637)" fill="#ffde92"/>
        <path id="Polígono_11-2" data-name="Polígono 11" d="M31,0,62,54H0Z" transform="translate(327.038 9688.637)" fill="#ffde92"/>
      </g>
      <g id="Grupo_1212681" data-name="Grupo 1212681" transform="translate(10532.848 9153.197) rotate(90)">
        <path id="Trazado_1277996" data-name="Trazado 1277996" d="M0,0H21V510.956H0Z" transform="translate(347.038 9468.848)" fill="#ffde92"/>
        <rect id="Rectángulo_462062-3" data-name="Rectángulo 462062" width="176" height="63" rx="23" transform="translate(327.038 9814.848) rotate(-90)" fill="#ffde92"/>
        <path id="Polígono_11-3" data-name="Polígono 11" d="M31,0,62,54H0Z" transform="translate(327.038 9434.848)" fill="#ffde92"/>
      </g>
      <text id="solicita_información" data-name="solicita
 información" transform="translate(467.711 9715)" fill="#12263f" font-size="16" font-family="SegoeUI-Bold, Segoe UI" font-weight="700" letter-spacing="-0.025em"><tspan x="-25.088" y="0">solicita</tspan><tspan x="-45.757" y="22" xml:space="preserve"> información</tspan></text>
      <text id="verifica_disponibilidad" data-name="verifica
 disponibilidad" transform="translate(800.789 9502.79)" fill="#12263f" font-size="16" font-family="SegoeUI-Bold, Segoe UI" font-weight="700" letter-spacing="-0.025em"><tspan x="-26.159" y="0">verifica</tspan><tspan x="-53.11" y="22" xml:space="preserve"> disponibilidad</tspan></text>
      <text id="confirma_registro" data-name="confirma
 registro" transform="translate(1175 9679)" fill="#12263f" font-size="16" font-family="SegoeUI-Bold, Segoe UI" font-weight="700" letter-spacing="-0.025em"><tspan x="-32.35" y="0">confirma</tspan><tspan x="-29.99" y="22" xml:space="preserve"> registro</tspan></text>
    </g>
  </g>
</svg>
